<svg xmlns="http://www.w3.org/2000/svg" viewBox="0 0 160 120" fill="none">
  <rect x="28" y="74" width="104" height="10" rx="2" fill="#F9F0FF"/>
  <rect x="32" y="78" width="96" height="3" rx="1" fill="#722ED1" opacity="0.35"/>
  <rect x="34" y="32" width="52" height="42" rx="4" fill="#F9F0FF" stroke="#722ED1" stroke-width="2"/>
  <rect x="74" y="32" width="52" height="42" rx="4" fill="#F0F5FF" stroke="#266CFB" stroke-width="2"/>
  <rect x="42" y="40" width="36" height="6" rx="1.5" fill="#722ED1" opacity="0.2"/>
  <rect x="42" y="50" width="36" height="6" rx="1.5" fill="#722ED1" opacity="0.3"/>
  <rect x="42" y="60" width="36" height="6" rx="1.5" fill="#722ED1" opacity="0.4"/>
  <rect x="82" y="44" width="36" height="20" rx="2" fill="#262626" opacity="0.85"/>
  <path d="M94 50 L94 58 L102 54 Z" fill="#722ED1"/>
  <circle cx="40" cy="43" r="1.8" fill="#52C41A"/>
  <circle cx="40" cy="53" r="1.8" fill="#52C41A"/>
  <path d="M80 22 L88 26 V34 L80 38 L72 34 V26 Z" fill="#722ED1" opacity="0.85"/>
  <path d="M80 26 L84 28 V32 L80 34 L76 32 V28 Z" fill="#fff" opacity="0.9"/>
  <path d="M58 32 V26 H102 V32" stroke="#B37FEB" stroke-width="1.5" stroke-linecap="round"/>
</svg>
